%TF.GenerationSoftware,KiCad,Pcbnew,7.0.11+dfsg-1build4*%
%TF.CreationDate,2025-03-22T04:05:15-07:00*%
%TF.ProjectId,STM-32 PCB,53544d2d-3332-4205-9043-422e6b696361,rev?*%
%TF.SameCoordinates,Original*%
%TF.FileFunction,Soldermask,Top*%
%TF.FilePolarity,Negative*%
%FSLAX46Y46*%
G04 Gerber Fmt 4.6, Leading zero omitted, Abs format (unit mm)*
G04 Created by KiCad (PCBNEW 7.0.11+dfsg-1build4) date 2025-03-22 04:05:15*
%MOMM*%
%LPD*%
G01*
G04 APERTURE LIST*
G04 Aperture macros list*
%AMRoundRect*
0 Rectangle with rounded corners*
0 $1 Rounding radius*
0 $2 $3 $4 $5 $6 $7 $8 $9 X,Y pos of 4 corners*
0 Add a 4 corners polygon primitive as box body*
4,1,4,$2,$3,$4,$5,$6,$7,$8,$9,$2,$3,0*
0 Add four circle primitives for the rounded corners*
1,1,$1+$1,$2,$3*
1,1,$1+$1,$4,$5*
1,1,$1+$1,$6,$7*
1,1,$1+$1,$8,$9*
0 Add four rect primitives between the rounded corners*
20,1,$1+$1,$2,$3,$4,$5,0*
20,1,$1+$1,$4,$5,$6,$7,0*
20,1,$1+$1,$6,$7,$8,$9,0*
20,1,$1+$1,$8,$9,$2,$3,0*%
G04 Aperture macros list end*
%ADD10RoundRect,0.200000X-0.200000X-0.250000X0.200000X-0.250000X0.200000X0.250000X-0.200000X0.250000X0*%
%ADD11C,1.524000*%
%ADD12R,1.700000X1.700000*%
%ADD13C,1.700000*%
%ADD14C,1.371600*%
%ADD15RoundRect,0.225000X-0.250000X0.225000X-0.250000X-0.225000X0.250000X-0.225000X0.250000X0.225000X0*%
%ADD16O,1.700000X1.700000*%
%ADD17RoundRect,0.225000X0.250000X-0.225000X0.250000X0.225000X-0.250000X0.225000X-0.250000X-0.225000X0*%
%ADD18R,1.200000X0.400000*%
%ADD19RoundRect,0.250000X-0.412500X-0.650000X0.412500X-0.650000X0.412500X0.650000X-0.412500X0.650000X0*%
%ADD20RoundRect,0.225000X-0.225000X-0.250000X0.225000X-0.250000X0.225000X0.250000X-0.225000X0.250000X0*%
%ADD21RoundRect,0.100000X-0.100000X-0.575000X0.100000X-0.575000X0.100000X0.575000X-0.100000X0.575000X0*%
%ADD22O,0.900000X1.600000*%
%ADD23RoundRect,0.250000X-0.550000X-0.450000X0.550000X-0.450000X0.550000X0.450000X-0.550000X0.450000X0*%
%ADD24RoundRect,0.250000X-0.700000X-0.700000X0.700000X-0.700000X0.700000X0.700000X-0.700000X0.700000X0*%
%ADD25C,1.100000*%
%ADD26R,2.200000X2.200000*%
%ADD27C,2.200000*%
%ADD28C,3.200000*%
%ADD29RoundRect,0.200000X0.275000X-0.200000X0.275000X0.200000X-0.275000X0.200000X-0.275000X-0.200000X0*%
%ADD30RoundRect,0.250000X-0.650000X0.412500X-0.650000X-0.412500X0.650000X-0.412500X0.650000X0.412500X0*%
%ADD31R,3.500000X3.500000*%
%ADD32RoundRect,0.750000X-1.000000X0.750000X-1.000000X-0.750000X1.000000X-0.750000X1.000000X0.750000X0*%
%ADD33RoundRect,0.875000X-0.875000X0.875000X-0.875000X-0.875000X0.875000X-0.875000X0.875000X0.875000X0*%
%ADD34R,1.475000X0.600000*%
%ADD35R,0.600000X1.475000*%
%ADD36RoundRect,0.250000X0.650000X-0.412500X0.650000X0.412500X-0.650000X0.412500X-0.650000X-0.412500X0*%
%ADD37RoundRect,0.200000X-0.275000X0.200000X-0.275000X-0.200000X0.275000X-0.200000X0.275000X0.200000X0*%
%ADD38RoundRect,0.250000X0.375000X0.625000X-0.375000X0.625000X-0.375000X-0.625000X0.375000X-0.625000X0*%
%ADD39RoundRect,0.200000X0.200000X0.275000X-0.200000X0.275000X-0.200000X-0.275000X0.200000X-0.275000X0*%
%ADD40RoundRect,0.102000X1.387500X-1.387500X1.387500X1.387500X-1.387500X1.387500X-1.387500X-1.387500X0*%
%ADD41C,2.979000*%
%ADD42RoundRect,0.225000X0.225000X0.250000X-0.225000X0.250000X-0.225000X-0.250000X0.225000X-0.250000X0*%
G04 APERTURE END LIST*
D10*
%TO.C,X1*%
X125225000Y-104150000D03*
X125225000Y-106000000D03*
X123775000Y-106000000D03*
X123775000Y-104150000D03*
%TD*%
D11*
%TO.C,U0*%
X89900000Y-104340000D03*
X89900000Y-106880000D03*
X89900000Y-117040000D03*
X89900000Y-119580000D03*
X115300000Y-104340000D03*
X115300000Y-106880000D03*
X115300000Y-117040000D03*
X115300000Y-119580000D03*
%TD*%
D12*
%TO.C,SW2*%
X133150000Y-131740000D03*
D13*
X126650000Y-131740000D03*
X133150000Y-127240000D03*
X126650000Y-127240000D03*
%TD*%
D14*
%TO.C,C6*%
X111580000Y-75025000D03*
X111580000Y-78525001D03*
%TD*%
D15*
%TO.C,C18*%
X157058000Y-118695000D03*
X157058000Y-120245000D03*
%TD*%
D12*
%TO.C,J5*%
X156520000Y-65160000D03*
D16*
X159060000Y-65160000D03*
X161600000Y-65160000D03*
X164140000Y-65160000D03*
%TD*%
D17*
%TO.C,C2*%
X125879000Y-112065000D03*
X125879000Y-110515000D03*
%TD*%
D11*
%TO.C,U4*%
X187687500Y-86840000D03*
X190227500Y-86840000D03*
X192767500Y-86840000D03*
X195307500Y-86840000D03*
X197847500Y-86840000D03*
X200387500Y-86840000D03*
X202927500Y-86840000D03*
X205467500Y-86840000D03*
X205467500Y-74140000D03*
X202927500Y-74140000D03*
X200387500Y-74140000D03*
X197847500Y-74140000D03*
X195307500Y-74140000D03*
X192767500Y-74140000D03*
X190227500Y-74140000D03*
X187687500Y-74140000D03*
%TD*%
D18*
%TO.C,U5*%
X148910000Y-119295000D03*
X148910000Y-119930000D03*
X148910000Y-120565000D03*
X148910000Y-121200000D03*
X148910000Y-121835000D03*
X148910000Y-122470000D03*
X148910000Y-123105000D03*
X148910000Y-123740000D03*
X154110000Y-123740000D03*
X154110000Y-123105000D03*
X154110000Y-122470000D03*
X154110000Y-121835000D03*
X154110000Y-121200000D03*
X154110000Y-120565000D03*
X154110000Y-119930000D03*
X154110000Y-119295000D03*
%TD*%
D19*
%TO.C,C7*%
X166425000Y-70280000D03*
X169550000Y-70280000D03*
%TD*%
D20*
%TO.C,C8*%
X168005000Y-67520000D03*
X169555000Y-67520000D03*
%TD*%
D21*
%TO.C,J10*%
X150690000Y-131000000D03*
X151340000Y-131000000D03*
X151990000Y-131000000D03*
X152640000Y-131000000D03*
X153290000Y-131000000D03*
D22*
X148690000Y-133675000D03*
D23*
X148790000Y-131225000D03*
D24*
X150790000Y-133675000D03*
X153190000Y-133675000D03*
D23*
X155190000Y-131225000D03*
D22*
X155290000Y-133675000D03*
%TD*%
D20*
%TO.C,C14*%
X154595000Y-127060000D03*
X156145000Y-127060000D03*
%TD*%
D19*
%TO.C,C4*%
X134535000Y-70280000D03*
X137660000Y-70280000D03*
%TD*%
D25*
%TO.C,J7*%
X116817500Y-63320000D03*
X114277500Y-63320000D03*
D26*
X116817500Y-65860000D03*
D27*
X114277500Y-65860000D03*
%TD*%
D15*
%TO.C,C3*%
X125815000Y-115350000D03*
X125815000Y-116900000D03*
%TD*%
D12*
%TO.C,J4*%
X124630000Y-65160000D03*
D16*
X127170000Y-65160000D03*
X129710000Y-65160000D03*
X132250000Y-65160000D03*
%TD*%
D20*
%TO.C,C11*%
X204305000Y-67520000D03*
X205855000Y-67520000D03*
%TD*%
%TO.C,C16*%
X156420000Y-122800000D03*
X157970000Y-122800000D03*
%TD*%
D28*
%TO.C,H3*%
X92000000Y-130060000D03*
%TD*%
D17*
%TO.C,C13*%
X157700000Y-133575000D03*
X157700000Y-132025000D03*
%TD*%
D29*
%TO.C,R3*%
X150439000Y-127080000D03*
X150439000Y-125430000D03*
%TD*%
D11*
%TO.C,U2*%
X119497500Y-86840000D03*
X122037500Y-86840000D03*
X124577500Y-86840000D03*
X127117500Y-86840000D03*
X129657500Y-86840000D03*
X132197500Y-86840000D03*
X134737500Y-86840000D03*
X137277500Y-86840000D03*
X137277500Y-74140000D03*
X134737500Y-74140000D03*
X132197500Y-74140000D03*
X129657500Y-74140000D03*
X127117500Y-74140000D03*
X124577500Y-74140000D03*
X122037500Y-74140000D03*
X119497500Y-74140000D03*
%TD*%
D28*
%TO.C,H4*%
X212000000Y-130030000D03*
%TD*%
D30*
%TO.C,C17*%
X159230000Y-117127500D03*
X159230000Y-120252500D03*
%TD*%
D31*
%TO.C,J0*%
X101877500Y-73350000D03*
D32*
X101877500Y-67350000D03*
D33*
X97177500Y-70350000D03*
%TD*%
D29*
%TO.C,R2*%
X152710000Y-127080000D03*
X152710000Y-125430000D03*
%TD*%
%TO.C,R5*%
X144500000Y-132305000D03*
X144500000Y-130655000D03*
%TD*%
D12*
%TO.C,J6*%
X192820000Y-65160000D03*
D16*
X195360000Y-65160000D03*
X197900000Y-65160000D03*
X200440000Y-65160000D03*
%TD*%
D11*
%TO.C,U3*%
X151387500Y-86840000D03*
X153927500Y-86840000D03*
X156467500Y-86840000D03*
X159007500Y-86840000D03*
X161547500Y-86840000D03*
X164087500Y-86840000D03*
X166627500Y-86840000D03*
X169167500Y-86840000D03*
X169167500Y-74140000D03*
X166627500Y-74140000D03*
X164087500Y-74140000D03*
X161547500Y-74140000D03*
X159007500Y-74140000D03*
X156467500Y-74140000D03*
X153927500Y-74140000D03*
X151387500Y-74140000D03*
%TD*%
D34*
%TO.C,U1*%
X129402000Y-105290000D03*
X129402000Y-106090000D03*
X129402000Y-106890000D03*
X129402000Y-107690000D03*
X129402000Y-108490000D03*
X129402000Y-109290000D03*
X129402000Y-110090000D03*
X129402000Y-110890000D03*
D35*
X130840000Y-112328000D03*
X131640000Y-112328000D03*
X132440000Y-112328000D03*
X133240000Y-112328000D03*
X134040000Y-112328000D03*
X134840000Y-112328000D03*
X135640000Y-112328000D03*
X136440000Y-112328000D03*
D34*
X137878000Y-110890000D03*
X137878000Y-110090000D03*
X137878000Y-109290000D03*
X137878000Y-108490000D03*
X137878000Y-107690000D03*
X137878000Y-106890000D03*
X137878000Y-106090000D03*
X137878000Y-105290000D03*
D35*
X136440000Y-103852000D03*
X135640000Y-103852000D03*
X134840000Y-103852000D03*
X134040000Y-103852000D03*
X133240000Y-103852000D03*
X132440000Y-103852000D03*
X131640000Y-103852000D03*
X130840000Y-103852000D03*
%TD*%
D28*
%TO.C,H1*%
X92050000Y-65060000D03*
%TD*%
D14*
%TO.C,C9*%
X143470000Y-75025000D03*
X143470000Y-78525001D03*
%TD*%
D25*
%TO.C,J8*%
X148707500Y-63320000D03*
X146167500Y-63320000D03*
D26*
X148707500Y-65860000D03*
D27*
X146167500Y-65860000D03*
%TD*%
D12*
%TO.C,J3*%
X163320000Y-130070000D03*
D16*
X165860000Y-130070000D03*
X168400000Y-130070000D03*
X170940000Y-130070000D03*
%TD*%
D36*
%TO.C,C1*%
X122279000Y-112852500D03*
X122279000Y-109727500D03*
%TD*%
D19*
%TO.C,C10*%
X202725000Y-70280000D03*
X205850000Y-70280000D03*
%TD*%
D37*
%TO.C,R4*%
X146220000Y-130655000D03*
X146220000Y-132305000D03*
%TD*%
D20*
%TO.C,C5*%
X136115000Y-67520000D03*
X137665000Y-67520000D03*
%TD*%
D12*
%TO.C,J2*%
X137610000Y-130070000D03*
D16*
X140150000Y-130070000D03*
%TD*%
D38*
%TO.C,D1*%
X147298000Y-111834000D03*
X144498000Y-111834000D03*
%TD*%
D39*
%TO.C,R1*%
X142151000Y-111834000D03*
X140501000Y-111834000D03*
%TD*%
D40*
%TO.C,SW1*%
X98456600Y-98256700D03*
D41*
X98456600Y-93556700D03*
X98456600Y-88856700D03*
X88926600Y-100161700D03*
X88926600Y-86951700D03*
%TD*%
D28*
%TO.C,H2*%
X212050000Y-65030000D03*
%TD*%
D25*
%TO.C,J9*%
X185007500Y-63320000D03*
X182467500Y-63320000D03*
D26*
X185007500Y-65860000D03*
D27*
X182467500Y-65860000D03*
%TD*%
D12*
%TO.C,J1*%
X108225000Y-100060000D03*
D16*
X110765000Y-100060000D03*
X113305000Y-100060000D03*
%TD*%
D42*
%TO.C,C15*%
X148495000Y-127070000D03*
X146945000Y-127070000D03*
%TD*%
D14*
%TO.C,C12*%
X179770000Y-75025000D03*
X179770000Y-78525001D03*
%TD*%
M02*
