M48
; DRILL file {KiCad 7.0.11+dfsg-1build4} date Sat 22 Mar 2025 04:05:57 AM PDT
; FORMAT={-:-/ absolute / inch / decimal}
; #@! TF.CreationDate,2025-03-22T04:05:57-07:00
; #@! TF.GenerationSoftware,Kicad,Pcbnew,7.0.11+dfsg-1build4
; #@! TF.FileFunction,Plated,1,2,PTH
FMAT,2
INCH
; #@! TA.AperFunction,Plated,PTH,ViaDrill
T1C0.0118
; #@! TA.AperFunction,Plated,PTH,ComponentDrill
T2C0.0197
; #@! TA.AperFunction,Plated,PTH,ComponentDrill
T3C0.0300
; #@! TA.AperFunction,Plated,PTH,ComponentDrill
T4C0.0340
; #@! TA.AperFunction,Plated,PTH,ComponentDrill
T5C0.0394
; #@! TA.AperFunction,Plated,PTH,ComponentDrill
T6C0.0433
; #@! TA.AperFunction,Plated,PTH,ComponentDrill
T7C0.0728
%
G90
G05
T1
X4.5988Y-3.0988
X4.5992Y-3.226
X4.7937Y-4.1977
X4.9015Y-4.2705
X4.9029Y-3.2997
X4.953Y-4.6921
X5.002Y-3.4937
X5.102Y-3.4937
X5.2016Y-3.4937
X5.3508Y-4.6807
X5.3508Y-4.7795
X5.3996Y-4.6807
X5.3996Y-4.7795
X5.5713Y-3.4937
X5.574Y-3.9929
X5.6713Y-3.4937
X5.674Y-3.9929
X5.674Y-4.0886
X5.674Y-4.1445
X5.7252Y-5.0531
X5.7539Y-4.8268
X5.7713Y-3.4937
X5.774Y-3.9929
X5.8543Y-3.2413
X5.8547Y-3.1142
X5.8756Y-4.476
X6.0579Y-3.4937
X6.1579Y-3.4937
X6.1603Y-3.2997
X6.2366Y-5.0531
X6.2579Y-3.4937
X6.3579Y-3.4937
X6.7713Y-3.4937
X6.8713Y-3.4937
X6.9713Y-3.4937
X7.0713Y-3.4937
X7.1713Y-3.4937
X7.2835Y-3.1449
X7.2839Y-3.272
X7.4866Y-3.4937
X7.5866Y-3.4937
X7.6866Y-3.4937
X7.7866Y-3.4937
T3
X3.5394Y-4.1079
X3.5394Y-4.2079
X3.5394Y-4.6079
X3.5394Y-4.7079
X4.5394Y-4.1079
X4.5394Y-4.2079
X4.5394Y-4.6079
X4.5394Y-4.7079
X4.7046Y-2.9189
X4.7046Y-3.4189
X4.8046Y-2.9189
X4.8046Y-3.4189
X4.9046Y-2.9189
X4.9046Y-3.4189
X5.0046Y-2.9189
X5.0046Y-3.4189
X5.1046Y-2.9189
X5.1046Y-3.4189
X5.2046Y-2.9189
X5.2046Y-3.4189
X5.3046Y-2.9189
X5.3046Y-3.4189
X5.4046Y-2.9189
X5.4046Y-3.4189
X5.9601Y-2.9189
X5.9601Y-3.4189
X6.0601Y-2.9189
X6.0601Y-3.4189
X6.1601Y-2.9189
X6.1601Y-3.4189
X6.2601Y-2.9189
X6.2601Y-3.4189
X6.3601Y-2.9189
X6.3601Y-3.4189
X6.4601Y-2.9189
X6.4601Y-3.4189
X6.5601Y-2.9189
X6.5601Y-3.4189
X6.6601Y-2.9189
X6.6601Y-3.4189
X7.3893Y-2.9189
X7.3893Y-3.4189
X7.4893Y-2.9189
X7.4893Y-3.4189
X7.5893Y-2.9189
X7.5893Y-3.4189
X7.6893Y-2.9189
X7.6893Y-3.4189
X7.7893Y-2.9189
X7.7893Y-3.4189
X7.8893Y-2.9189
X7.8893Y-3.4189
X7.9893Y-2.9189
X7.9893Y-3.4189
X8.0893Y-2.9189
X8.0893Y-3.4189
T4
X4.3929Y-2.9537
X4.3929Y-3.0915
X5.6484Y-2.9537
X5.6484Y-3.0915
X7.0776Y-2.9537
X7.0776Y-3.0915
T5
X4.2608Y-3.9394
X4.3608Y-3.9394
X4.4608Y-3.9394
X4.9067Y-2.5654
X4.9862Y-5.0094
X4.9862Y-5.1866
X5.0067Y-2.5654
X5.1067Y-2.5654
X5.2067Y-2.5654
X5.2421Y-5.0094
X5.2421Y-5.1866
X5.4177Y-5.1209
X5.5177Y-5.1209
X6.1622Y-2.5654
X6.2622Y-2.5654
X6.3622Y-2.5654
X6.4299Y-5.1209
X6.4622Y-2.5654
X6.5299Y-5.1209
X6.6299Y-5.1209
X6.7299Y-5.1209
X7.5913Y-2.5654
X7.6913Y-2.5654
X7.7913Y-2.5654
X7.8913Y-2.5654
T6
X4.4991Y-2.5929
X4.5991Y-2.5929
X5.7546Y-2.5929
X5.8546Y-2.5929
X7.1838Y-2.5929
X7.2838Y-2.5929
T7
X3.501Y-3.4233
X3.501Y-3.9434
X3.8762Y-3.4983
X3.8762Y-3.6833
X3.8762Y-3.8684
T2
G00X5.8539Y-5.2766
M15
G01X5.8539Y-5.249
M16
G05
G00X6.1138Y-5.2766
M15
G01X6.1138Y-5.249
M16
G05
T5
G00X3.8259Y-2.7303
M15
G01X3.8259Y-2.8091
M16
G05
G00X4.0503Y-2.6516
M15
G01X3.9716Y-2.6516
M16
G05
G00X4.0503Y-2.8878
M15
G01X3.9716Y-2.8878
M16
G05
M30
